<svg width="125" height="125" viewBox="0 0 125 125" fill="none" xmlns="http://www.w3.org/2000/svg">
<rect width="125" height="125" fill="#D9D9D9"/>
<circle cx="25.5" cy="36.5" r="7.5" fill="black"/>
<circle cx="100.5" cy="36.5" r="7.5" fill="black"/>
<circle cx="63" cy="44" r="15" fill="black"/>
<path d="M118 62.5C118 71.3848 112.205 79.9056 101.891 86.1881C91.5764 92.4705 77.5869 96 63 96C48.4131 96 34.4236 92.4705 24.1091 86.1881C13.7946 79.9056 8 71.3848 8 62.5L63 62.5H118Z" fill="black"/>
<path d="M39 65.5C39 67.0102 38.7284 68.5056 38.2007 69.9009C37.6731 71.2961 36.8996 72.5639 35.9246 73.6317C34.9496 74.6996 33.7921 75.5467 32.5182 76.1246C31.2443 76.7025 29.8789 77 28.5 77C27.1211 77 25.7557 76.7025 24.4818 76.1246C23.2079 75.5467 22.0504 74.6996 21.0754 73.6317C20.1004 72.5639 19.3269 71.2961 18.7993 69.9009C18.2716 68.5056 18 67.0102 18 65.5L28.5 65.5H39Z" fill="#D9D9D9"/>
<path d="M64 65.5C64 67.4042 63.6767 69.2897 63.0485 71.0489C62.4203 72.8081 61.4996 74.4066 60.3388 75.753C59.1781 77.0995 57.8001 78.1676 56.2835 78.8963C54.767 79.6249 53.1415 80 51.5 80C49.8585 80 48.233 79.6249 46.7165 78.8963C45.1999 78.1676 43.8219 77.0995 42.6612 75.753C41.5004 74.4066 40.5797 72.8081 39.9515 71.0489C39.3233 69.2897 39 67.4042 39 65.5L51.5 65.5H64Z" fill="#D9D9D9"/>
<path d="M86 65.5C86 67.4042 85.6767 69.2897 85.0485 71.0489C84.4203 72.8081 83.4996 74.4066 82.3388 75.753C81.1781 77.0995 79.8001 78.1676 78.2835 78.8963C76.767 79.6249 75.1415 80 73.5 80C71.8585 80 70.233 79.6249 68.7165 78.8963C67.1999 78.1676 65.8219 77.0995 64.6612 75.753C63.5004 74.4066 62.5797 72.8081 61.9515 71.0489C61.3233 69.2897 61 67.4042 61 65.5L73.5 65.5H86Z" fill="#D9D9D9"/>
<path d="M107 65.5C107 67.0102 106.728 68.5056 106.201 69.9009C105.673 71.2961 104.9 72.5639 103.925 73.6317C102.95 74.6996 101.792 75.5467 100.518 76.1246C99.2443 76.7025 97.8789 77 96.5 77C95.1211 77 93.7557 76.7025 92.4818 76.1246C91.2079 75.5467 90.0504 74.6996 89.0754 73.6317C88.1004 72.5639 87.3269 71.2961 86.7993 69.9009C86.2716 68.5056 86 67.0102 86 65.5L96.5 65.5H107Z" fill="#D9D9D9"/>
</svg>
